<?xml version="1.0" encoding="UTF-8"?>
<svg width="127mm" height="52.917mm" version="1.1" viewBox="0 0 127 52.917" xmlns="http://www.w3.org/2000/svg" xmlns:cc="http://creativecommons.org/ns#" xmlns:dc="http://purl.org/dc/elements/1.1/" xmlns:rdf="http://www.w3.org/1999/02/22-rdf-syntax-ns#" xmlns:xlink="http://www.w3.org/1999/xlink">
 <defs>
  <linearGradient id="c" x1="13.411" x2="36.959" y1="89.658" y2="66.11" gradientUnits="userSpaceOnUse" xlink:href="#a"/>
  <linearGradient id="a">
   <stop stop-color="#e93c17" offset="0"/>
   <stop stop-color="#ca153e" offset="1"/>
  </linearGradient>
  <linearGradient id="b" x1="36.959" x2="13.411" y1="66.11" y2="89.658" gradientTransform="translate(-4.9572e-6)" gradientUnits="userSpaceOnUse" xlink:href="#a"/>
 </defs>
 <metadata>
  <rdf:RDF>
   <cc:Work rdf:about="">
    <dc:format>image/svg+xml</dc:format>
    <dc:type rdf:resource="http://purl.org/dc/dcmitype/StillImage"/>
    <cc:license rdf:resource="http://creativecommons.org/licenses/by/4.0/"/>
   </cc:Work>
   <cc:License rdf:about="http://creativecommons.org/licenses/by/4.0/">
    <cc:permits rdf:resource="http://creativecommons.org/ns#Reproduction"/>
    <cc:permits rdf:resource="http://creativecommons.org/ns#Distribution"/>
    <cc:requires rdf:resource="http://creativecommons.org/ns#Notice"/>
    <cc:requires rdf:resource="http://creativecommons.org/ns#Attribution"/>
    <cc:permits rdf:resource="http://creativecommons.org/ns#DerivativeWorks"/>
   </cc:License>
  </rdf:RDF>
 </metadata>
 <g transform="translate(-52.06 -.19847)">
  <g transform="translate(48.861 53.832)">
   <g transform="matrix(1.0337 0 0 1.0337 -.6338 -107.91)" fill="url(#c)">
    <path d="m16.354 66.11c-1.6179 0-2.9435 1.3255-2.9435 2.9435v17.661c0 0.67791 0.23435 1.3031 0.62377 1.8023 0.54001 0.6923 1.3797 1.1412 2.3197 1.1412h17.661c1.6179 0 2.9435-1.3255 2.9435-2.9435v-17.661c0-0.65126-0.21549-1.2527-0.57778-1.7419v-0.0029c-0.0029-0.0039-0.0055-0.0078-0.0089-0.01168-0.0095-0.0128-0.01891-0.02503-0.02893-0.03726-0.0067-0.0083-0.01335-0.01725-0.02003-0.02559-0.02002-0.02559-0.04227-0.05006-0.06325-0.07476-0.54134-0.63974-1.3473-1.0492-2.245-1.0492zm0 1.4717h17.661c0.82806 0 1.4717 0.64368 1.4717 1.4717v7.3587h-4.4152v-2.9435h-2.9435v-4.4152h-2.9435v5.887h-2.9435v-2.9435h-2.9435v4.4152h-4.4152v-7.3587c0-0.82806 0.64368-1.4717 1.4717-1.4717zm-1.4717 11.774h4.4152v4.4152h2.9435v-2.9435h2.9435v5.887h2.9435v-4.4152h2.9435v-2.9435h4.4152v7.3587c0 0.82806-0.64368 1.4717-1.4717 1.4717h-17.661c-0.82806 0-1.4717-0.64369-1.4717-1.4717z" fill="url(#b)" stroke-width=".063652" style="paint-order:markers fill stroke"/>
   </g>
   <g transform="translate(0 -52.803)">
    <path d="m42.621 18.576v3.2866h-1.3953v1.664h1.3953v6.1908c0 1.4588 0.27814 2.4837 0.86506 3.0634 0.58715 0.57265 1.6246 0.84336 3.1037 0.84336h2.0464v-1.7777h-2.0464c-0.78102 0-1.2845-0.13934-1.5141-0.37414l-0.0011-0.0011c-0.21725-0.22987-0.35549-0.81919-0.35549-1.7539v-6.1908h3.9171v-1.664h-3.9171v-3.2866h-0.09302z" color="black"/>
    <path d="m55.363 21.583c-1.7562 0-3.1684 0.56893-4.2127 1.7043-1.0375 1.1287-1.5544 2.6578-1.5544 4.5692 0 1.8509 0.54673 3.3331 1.6402 4.4266v0.0011c1.1004 1.0934 2.5931 1.6392 4.4576 1.6392 0.7436 0 1.4775-0.07653 2.2004-0.22944 0.72243-0.15282 1.4271-0.37599 2.1146-0.66766l0.05684-0.02376v-2.0133l-0.13642 0.07235c-0.66936 0.35517-1.3452 0.62067-2.0268 0.79788-0.67428 0.17708-1.3722 0.26562-2.095 0.26562-1.2436 0-2.2009-0.33383-2.8908-0.99632l-0.0016-0.0011c-0.66262-0.65021-1.0332-1.5998-1.1296-2.837h8.724v-1.0232c0-1.7388-0.46172-3.1258-1.3891-4.1444-0.92022-1.0252-2.1806-1.54-3.7574-1.54zm0.02066 1.7983c0.91664 0 1.6371 0.29789 2.1849 0.89917v0.0011c0.53563 0.5808 0.80708 1.3606 0.83819 2.3347l-6.5557 0.01034c0.10961-1.0168 0.45052-1.8108 1.0439-2.3719 0.62209-0.58162 1.4454-0.87333 2.4887-0.87333z" color="black"/>
    <path d="m67.849 21.583c-0.81934 0-1.5488 0.17638-2.1838 0.52917h-0.0016c-0.55695 0.31289-1.0375 0.78954-1.4635 1.3808v-1.6309h-2.097v11.762h2.097v-6.6353c0-1.1138 0.2903-1.9799 0.86507-2.6148 0.5747-0.63484 1.3526-0.95085 2.3595-0.95085 0.83472 0 1.4413 0.25958 1.85 0.78031 0.40856 0.52059 0.62115 1.3195 0.62115 2.403v7.0177h2.0867v-7.0797c0-1.6117-0.34385-2.8439-1.0449-3.6866-0.7009-0.84961-1.7397-1.2743-3.0887-1.2743z" color="black"/>
    <path d="m78.474 21.583c-0.62698 0-1.2703 0.06976-1.9306 0.20877-0.66004 0.13207-1.3402 0.3333-2.0402 0.60358l-0.05891 0.02377v1.9761l0.13642-0.07441c0.57212-0.3133 1.1676-0.54833 1.787-0.70487 0.61951-0.15658 1.2559-0.23461 1.91-0.23461 1.0261 0 1.8088 0.23626 2.3595 0.70073v1e-3h0.0011c0.55724 0.45774 0.83406 1.0998 0.83406 1.9544v0.09302h-2.5745c-1.7412 0-3.0641 0.33267-3.9625 1.0118-0.89147 0.67921-1.3384 1.6961-1.3384 3.0189 0 1.1355 0.35729 2.0578 1.0718 2.744h0.0011c0.72172 0.67926 1.6926 1.018 2.8949 1.018 0.94796 0 1.7557-0.16747 2.4195-0.50643l0.0011-0.0011c0.58726-0.30612 1.0738-0.78312 1.4872-1.3787v1.5865h2.0867v-6.6973c0-1.7784-0.41765-3.1213-1.2661-4.0122-0.84843-0.89077-2.1286-1.3312-3.8189-1.3312zm1.1989 6.2218h1.7994v0.33073c0 1.2243-0.31503 2.1951-0.93948 2.927-0.61747 0.72485-1.4295 1.0831-2.4619 1.0831-0.74797 0-1.3279-0.18978-1.756-0.56431-0.42174-0.3822-0.63149-0.88901-0.63149-1.5441 0-0.82591 0.2789-1.384 0.84336-1.7188 0.56235-0.33349 1.6166-0.51366 3.1461-0.51366z" color="black"/>
    <path d="m90.788 21.583c-1.8237 0-3.2757 0.55053-4.3346 1.6516-1.0521 1.1012-1.5761 2.6138-1.5761 4.5186 0 1.8774 0.52024 3.3823 1.5648 4.4969 1.0445 1.1146 2.4593 1.6733 4.222 1.6733 0.6464 0 1.2564-0.06265 1.8283-0.1881 0.57858-0.12548 1.1365-0.3144 1.6733-0.56534l0.05374-0.02479v-1.973l-0.13746 0.07648c-0.5313 0.29289-1.0655 0.51298-1.602 0.66249-0.52976 0.14263-1.0661 0.21394-1.6092 0.21394-1.2139 0-2.139-0.37806-2.8029-1.1358-0.66411-0.76473-1.0005-1.8384-1.0005-3.236 0-1.3976 0.33662-2.4679 1.0005-3.2256 0.66401-0.76462 1.5892-1.1462 2.8029-1.1462 0.54273 0 1.0787 0.0739 1.6082 0.22324h0.0011v0.0011c0.53647 0.14261 1.0705 0.35918 1.602 0.65216l0.13746 0.07648v-1.9937l-0.05375-0.0248c-0.52984-0.244-1.0774-0.42611-1.6423-0.54467l0.0011 1e-3c-0.56485-0.12557-1.1441-0.18914-1.7363-0.18914z" color="black"/>
    <path d="m96.389 17.356v2.5942h2.0867v-2.5942zm0 4.5062v11.762h2.0867v-11.762z" color="black"/>
    <path d="m101.71 18.576v3.2866h-1.3953v1.664h1.3953v6.1908c0 1.4588 0.27813 2.4837 0.86506 3.0634 0.58715 0.57265 1.6246 0.84336 3.1037 0.84336h2.0454v-1.7777h-2.0454c-0.78103 0-1.2845-0.13934-1.5141-0.37414l-2e-3 -0.0011c-0.21729-0.22994-0.35657-0.81923-0.35657-1.7539v-6.1908h3.9171v-1.664h-3.917v-3.2866h-0.092z" color="black"/>
    <path d="m108.63 21.862 4.7201 11.484-0.32763 0.83406c-0.34937 0.91796-0.675 1.4966-0.93534 1.7198-0.26843 0.23009-0.64956 0.34934-1.1586 0.34934h-1.2092v1.7777h1.6123c0.86957 0 1.5758-0.21571 2.1053-0.65216 0.53588-0.44174 1.058-1.3504 1.5978-2.7347l5.1356-12.778h-2.2149l-3.5543 8.8976-3.5553-8.8976z" color="black"/>
   </g>
  </g>
 </g>
</svg>
