<?xml version="1.0" encoding="UTF-8"?>
<svg version="1.1" viewBox="0 0 16.933 16.933" xmlns="http://www.w3.org/2000/svg" xmlns:cc="http://creativecommons.org/ns#" xmlns:dc="http://purl.org/dc/elements/1.1/" xmlns:rdf="http://www.w3.org/1999/02/22-rdf-syntax-ns#" xmlns:xlink="http://www.w3.org/1999/xlink">
 <metadata>
  <rdf:RDF>
   <cc:Work rdf:about="">
    <dc:format>image/svg+xml</dc:format>
    <dc:type rdf:resource="http://purl.org/dc/dcmitype/StillImage"/>
    <cc:license rdf:resource="http://creativecommons.org/licenses/by/4.0/"/>
   </cc:Work>
   <cc:License rdf:about="http://creativecommons.org/licenses/by/4.0/">
    <cc:permits rdf:resource="http://creativecommons.org/ns#Reproduction"/>
    <cc:permits rdf:resource="http://creativecommons.org/ns#Distribution"/>
    <cc:requires rdf:resource="http://creativecommons.org/ns#Notice"/>
    <cc:requires rdf:resource="http://creativecommons.org/ns#Attribution"/>
    <cc:permits rdf:resource="http://creativecommons.org/ns#DerivativeWorks"/>
   </cc:License>
  </rdf:RDF>
 </metadata>
 <defs>
  <linearGradient id="c" x1="13.411" x2="36.959" y1="89.658" y2="66.11" gradientUnits="userSpaceOnUse" xlink:href="#a"/>
  <linearGradient id="a">
   <stop stop-color="#e93c17" offset="0"/>
   <stop stop-color="#ca153e" offset="1"/>
  </linearGradient>
  <linearGradient id="b" x1="36.959" x2="13.411" y1="66.11" y2="89.658" gradientTransform="translate(-4.9572e-6)" gradientUnits="userSpaceOnUse" xlink:href="#a"/>
 </defs>
 <g transform="matrix(.7191 0 0 .7191 -9.6438 -47.54)" fill="url(#c)">
  <path d="m16.354 66.11c-1.6179 0-2.9435 1.3255-2.9435 2.9435v17.661c0 0.67791 0.23435 1.3031 0.62377 1.8023 0.54001 0.6923 1.3797 1.1412 2.3197 1.1412h17.661c1.6179 0 2.9435-1.3255 2.9435-2.9435v-17.661c0-0.65126-0.21549-1.2527-0.57778-1.7419v-0.0029c-0.0029-0.0039-0.0055-0.0078-0.0089-0.01168-0.0095-0.0128-0.01891-0.02503-0.02893-0.03726-0.0067-0.0083-0.01335-0.01725-0.02003-0.02559-0.02002-0.02559-0.04227-0.05006-0.06325-0.07476-0.54134-0.63974-1.3473-1.0492-2.245-1.0492zm0 1.4717h17.661c0.82806 0 1.4717 0.64368 1.4717 1.4717v7.3587h-4.4152v-2.9435h-2.9435v-4.4152h-2.9435v5.887h-2.9435v-2.9435h-2.9435v4.4152h-4.4152v-7.3587c0-0.82806 0.64368-1.4717 1.4717-1.4717zm-1.4717 11.774h4.4152v4.4152h2.9435v-2.9435h2.9435v5.887h2.9435v-4.4152h2.9435v-2.9435h4.4152v7.3587c0 0.82806-0.64368 1.4717-1.4717 1.4717h-17.661c-0.82806 0-1.4717-0.64369-1.4717-1.4717z" fill="url(#b)" stroke-width=".063652" style="paint-order:markers fill stroke"/>
 </g>
</svg>
