<?xml version="1.0" encoding="UTF-8"?>
<svg width="127mm" height="52.917mm" version="1.1" viewBox="0 0 127 52.916668" xmlns="http://www.w3.org/2000/svg" xmlns:cc="http://creativecommons.org/ns#" xmlns:dc="http://purl.org/dc/elements/1.1/" xmlns:rdf="http://www.w3.org/1999/02/22-rdf-syntax-ns#" xmlns:xlink="http://www.w3.org/1999/xlink">
<defs>
<linearGradient id="a" x1="-7.3442" x2="-31.127" y1="65.58" y2="89.363" gradientTransform="matrix(1.0235 0 0 1.0235 45.087 -.97381)" gradientUnits="userSpaceOnUse">
<stop stop-color="#e93c17" offset="0"/>
<stop stop-color="#ca153e" offset="1"/>
</linearGradient>
</defs>
<metadata>
<rdf:RDF>
<cc:Work rdf:about="">
<dc:format>image/svg+xml</dc:format>
<dc:type rdf:resource="http://purl.org/dc/dcmitype/StillImage"/>
<cc:license rdf:resource="http://creativecommons.org/licenses/by/4.0/"/>
</cc:Work>
<cc:License rdf:about="http://creativecommons.org/licenses/by/4.0/">
<cc:permits rdf:resource="http://creativecommons.org/ns#Reproduction"/>
<cc:permits rdf:resource="http://creativecommons.org/ns#Distribution"/>
<cc:requires rdf:resource="http://creativecommons.org/ns#Notice"/>
<cc:requires rdf:resource="http://creativecommons.org/ns#Attribution"/>
<cc:permits rdf:resource="http://creativecommons.org/ns#DerivativeWorks"/>
</cc:License>
</rdf:RDF>
</metadata>
<g transform="matrix(1 0 -.0095955 1 -8.2648 -231.3)">
<g transform="translate(7.7121 179.21)">
<path d="m16.272 66.146c-1.6725 0-3.0432 1.3708-3.0432 3.0432v18.255c0 1.6725 1.3708 3.0432 3.0432 3.0432h18.255c1.6725 0 3.0432-1.3708 3.0432-3.0432v-18.255c0-1.6725-1.3708-3.0432-3.0432-3.0432zm9.1281 3.0427h3.0427v4.5641h3.0427v3.0427h4.5635v3.0427h-4.5635v3.0427h-3.0427v4.5641h-3.0427v-6.0854h-3.0427v3.0427h-3.0427v-4.5641h-4.5646v-3.0427h4.5646v-4.5641h3.0427v3.0427h3.0427z" color="black" fill="url(#a)" style="paint-order:markers fill stroke"/>
<g transform="matrix(1.0222 0 0 1.0222 -.29398 -1.7404)" fill="#90c6ee">
<path d="m41.982 71.641v3.2152h-1.3649v1.6278h1.3649v6.0563c0 1.4271 0.27209 2.4297 0.84626 2.9968 0.57439 0.5602 1.5893 0.82502 3.0362 0.82502h2.0019v-1.739h-2.0019c-0.76404 0-1.2566-0.13631-1.4812-0.366l-1e-3 -1e-3c-0.21261-0.22495-0.34784-0.80146-0.34784-1.7158v-6.0563h3.8319v-1.6278h-3.8319v-3.2152h-0.09099z" color="black"/>
<path d="m54.447 74.583c-1.718 0-3.0995 0.55657-4.1211 1.6672-1.015 1.1041-1.5206 2.6-1.5206 4.4699 0 1.8107 0.53485 3.2607 1.6046 4.3304v1e-3c1.0765 1.0697 2.5367 1.6035 4.3607 1.6035 0.72743 0 1.4454-0.07486 2.1525-0.22445 0.70673-0.1495 1.3961-0.36782 2.0686-0.65315l0.05561-0.02324v-1.9696l-0.13346 0.07077c-0.65481 0.34745-1.3159 0.60717-1.9827 0.78054-0.65962 0.17323-1.3423 0.25984-2.0494 0.25984-1.2166 0-2.1531-0.32657-2.8279-0.97466l-0.0016-1e-3c-0.64819-0.63607-1.0107-1.565-1.105-2.7754h8.5344v-1.001c0-1.701-0.45169-3.0578-1.3589-4.0544-0.90021-1.0029-2.1332-1.5065-3.6757-1.5065zm0.02022 1.7592c0.89671 0 1.6015 0.29142 2.1374 0.87962v1e-3c0.52399 0.56818 0.78954 1.3311 0.81997 2.284l-6.4132 0.01012c0.10723-0.99466 0.44072-1.7715 1.0212-2.3204 0.60856-0.56898 1.414-0.85435 2.4346-0.85435z" color="black"/>
<path d="m66.661 74.583c-0.80153 0-1.5152 0.17255-2.1364 0.51766h-0.0016c-0.54484 0.30609-1.015 0.77238-1.4317 1.3508v-1.5955h-2.0514v11.506h2.0514v-6.491c0-1.0896 0.28399-1.9369 0.84626-2.558 0.5622-0.62104 1.3232-0.93018 2.3082-0.93018 0.81657 0 1.41 0.25394 1.8098 0.76335 0.39968 0.50927 0.60765 1.2908 0.60765 2.3507v6.8651h2.0413v-6.9258c0-1.5767-0.33637-2.7821-1.0222-3.6065-0.68567-0.83114-1.7019-1.2466-3.0216-1.2466z" color="black"/>
<path d="m77.056 74.583c-0.61335 0-1.2427 0.06824-1.8887 0.20423-0.64569 0.1292-1.3111 0.32605-1.9958 0.59046l-0.05763 0.02327v1.9331l0.13346-0.07279c0.55968-0.3065 1.1422-0.53641 1.7481-0.68954 0.60604-0.15317 1.2286-0.22951 1.8684-0.22951 1.0038 0 1.7695 0.23113 2.3083 0.6855v1e-3h1e-3c0.54513 0.44778 0.81593 1.0759 0.81593 1.9119v0.091h-2.5186c-1.7034 0-2.9975 0.32544-3.8764 0.98983-0.87209 0.66445-1.3093 1.6592-1.3093 2.9533 0 1.1108 0.34952 2.0131 1.0485 2.6844h1e-3c0.70603 0.6645 1.6558 0.9959 2.832 0.99589 0.92735 0 1.7175-0.16383 2.3669-0.49542l1e-3 -1e-3c0.57449-0.29947 1.0504-0.7661 1.4549-1.3488v1.552h2.0413v-6.5517c0-1.7397-0.40857-3.0535-1.2386-3.9249-0.82998-0.8714-2.0823-1.3022-3.7359-1.3022zm1.1728 6.0866h1.7603v0.32354c0 1.1977-0.30818 2.1474-0.91905 2.8633-0.60404 0.70909-1.3984 1.0596-2.4083 1.0596-0.73171 0-1.299-0.18566-1.7178-0.55204-0.41257-0.37389-0.61776-0.86968-0.61776-1.5105 0-0.80795 0.27284-1.3539 0.82503-1.6814 0.55012-0.32624 1.5815-0.5025 3.0777-0.5025z" color="black"/>
<path d="m89.102 74.583c-1.7841 0-3.2044 0.53856-4.2404 1.6157-1.0292 1.0773-1.5419 2.557-1.5419 4.4204 0 1.8366 0.50893 3.3087 1.5307 4.3991 1.0218 1.0904 2.4059 1.6369 4.1302 1.6369 0.63235 0 1.2291-0.06129 1.7886-0.18401 0.566-0.12275 1.1118-0.30756 1.6369-0.55305l0.05258-0.02425v-1.9301l-0.13447 0.07482c-0.51974 0.28652-1.0423 0.50183-1.5671 0.64809-0.51824 0.13953-1.0429 0.20929-1.5742 0.20929-1.1875 0-2.0925-0.36985-2.742-1.1112-0.64967-0.74811-0.97871-1.7984-0.97871-3.1656 0-1.3672 0.3293-2.4143 0.97871-3.1555 0.64958-0.748 1.5547-1.1213 2.742-1.1213 0.53093 0 1.0552 0.0723 1.5732 0.21839h1e-3v1e-3c0.52481 0.1395 1.0473 0.35137 1.5671 0.63798l0.13447 0.07482v-1.9503l-0.05258-0.02425c-0.51832-0.2387-1.0539-0.41685-1.6066-0.53283l1e-3 1e-3c-0.55257-0.12284-1.1193-0.18502-1.6986-0.18502z" color="black"/>
<path d="m94.581 70.448v2.5378h2.0413v-2.5378zm0 4.4082v11.506h2.0413v-11.506z" color="black"/>
<path d="m99.786 71.641v3.2152h-1.3649v1.6278h1.3649v6.0563c0 1.4271 0.27209 2.4297 0.84626 2.9968 0.57439 0.5602 1.5893 0.82503 3.0362 0.82503h2.0009v-1.739h-2.0009c-0.76404 0-1.2566-0.13631-1.4812-0.366l-2e-3 -1e-3c-0.21257-0.22494-0.34882-0.80142-0.34882-1.7158v-6.0563h3.8319v-1.6278h-3.8319v-3.2152h-0.09z" color="black"/>
<path d="m106.56 74.856 4.6175 11.234-0.32051 0.81592c-0.34178 0.89801-0.66083 1.4641-0.91551 1.6824-0.2626 0.22508-0.63493 0.34174-1.1329 0.34174h-1.1834v1.739h1.5778c0.85066 0 1.5411-0.21102 2.059-0.63798 0.52423-0.43214 1.0355-1.3211 1.5636-2.6753l5.0234-12.5h-2.1662l-3.477 8.7042-3.478-8.7042z" color="black"/>
</g>
</g>
</g>
</svg>
