<?xml version="1.0" encoding="UTF-8" standalone="no"?>
<svg
   xmlns:dc="http://purl.org/dc/elements/1.1/"
   xmlns:cc="http://creativecommons.org/ns#"
   xmlns:rdf="http://www.w3.org/1999/02/22-rdf-syntax-ns#"
   xmlns:svg="http://www.w3.org/2000/svg"
   xmlns="http://www.w3.org/2000/svg"
   xmlns:xlink="http://www.w3.org/1999/xlink"
   id="svg5199"
   version="1.1"
   viewBox="0 0 127 52.916668"
   height="52.916668mm"
   width="127mm">
  <defs
     id="defs5193">
    <linearGradient
       y2="89.363289"
       x2="-31.127453"
       y1="65.579994"
       x1="-7.3441615"
       gradientTransform="matrix(1.0234776,0,0,1.0234774,45.087416,-0.9738076)"
       gradientUnits="userSpaceOnUse"
       id="linearGradient67977"
       xlink:href="#linearGradient135126" />
    <linearGradient
       id="linearGradient135126">
      <stop
         id="stop135122"
         offset="0"
         style="stop-color:#e93c17;stop-opacity:1" />
      <stop
         id="stop135124"
         offset="1"
         style="stop-color:#ca153e;stop-opacity:1" />
    </linearGradient>
  </defs>
  <metadata
     id="metadata5196">
    <rdf:RDF>
      <cc:Work
         rdf:about="">
        <dc:format>image/svg+xml</dc:format>
        <dc:type
           rdf:resource="http://purl.org/dc/dcmitype/StillImage" />
        <dc:title></dc:title>
      </cc:Work>
    </rdf:RDF>
  </metadata>
  <g
     transform="translate(9.7015839,13.99414)"
     style="display:inline"
     id="layer2">
    <rect
       y="-13.99414"
       x="-9.7015839"
       height="52.916668"
       width="127"
       id="rect3332-9"
       style="display:inline;fill:black;fill-opacity:1;stroke-width:0.56500113;stroke-linecap:square;stroke-linejoin:round;stroke-dashoffset:30.23620033;paint-order:stroke fill markers" />
  </g>
  <g
     style="display:inline"
     transform="translate(-10.9115,-231.29761)"
     id="layer1">
    <g
       transform="translate(7.7120844,179.21139)"
       id="g941">
      <path
         d="m 16.272402,66.14583 c -1.672485,0 -3.043236,1.370763 -3.043236,3.043235 V 87.44426 c 0,1.672472 1.370751,3.043235 3.043236,3.043235 h 18.255194 c 1.672472,0 3.043235,-1.370763 3.043235,-3.043235 V 69.189065 c 0,-1.672472 -1.370763,-3.043235 -3.043235,-3.043235 z m 9.128125,3.042708 h 3.042707 V 73.7526 h 3.042708 v 3.042708 h 4.563535 v 3.042709 h -2.281503 -2.282032 v 3.042708 h -3.042708 v 4.564062 h -3.042707 v -6.085416 h -3.042708 v 3.042708 H 19.315111 V 79.838017 H 14.75052 v -3.042709 h 4.564591 v -4.564062 h 3.042708 v 3.042708 h 3.042708 z"
         style="color:black;display:inline;fill:url(#linearGradient67977);fill-opacity:1;stroke:none;stroke-width:8.6248703;stroke-dashoffset:30.23620033;paint-order:markers fill stroke"
         id="path3234-4" />
      <g
         transform="matrix(1.0222222,0,0,1.0222222,-0.293977,-1.7403688)"
         id="g2047">
        <path
           d="m 41.982461,71.640632 v 3.215174 h -1.36493 v 1.627807 h 1.36493 v 6.056254 c 0,1.42713 0.272089,2.429703 0.846258,2.996783 0.574388,0.560204 1.589311,0.825025 3.036215,0.825025 h 2.001901 v -1.739024 h -2.001901 c -0.764042,0 -1.256593,-0.136314 -1.481202,-0.366004 l -0.001,-0.001 c -0.212606,-0.224952 -0.34784,-0.801457 -0.34784,-1.715803 V 76.48359 h 3.83192 v -1.627807 h -3.83192 v -3.215174 h -0.09099 z"
           style="color:black;fill:#90c6ee;fill-opacity:1;stroke:none;stroke-width:0.181182"
           id="path1417" />
        <path
           d="m 54.446817,74.582819 c -1.717992,0 -3.099536,0.556566 -4.121082,1.667238 -1.014972,1.104123 -1.520635,2.60004 -1.520635,4.469901 0,1.810653 0.534847,3.260666 1.604553,4.33037 v 0.001 c 1.076525,1.069668 2.536699,1.603541 4.360703,1.603541 0.727433,0 1.445393,-0.07486 2.152549,-0.224453 0.706727,-0.149501 1.396068,-0.367818 2.068631,-0.653146 l 0.05561,-0.02324 v -1.969581 l -0.133458,0.07077 c -0.654813,0.34745 -1.31591,0.607174 -1.982691,0.780537 -0.659617,0.173234 -1.342345,0.259844 -2.04942,0.259844 -1.21656,0 -2.153075,-0.326571 -2.827937,-0.974664 l -0.0016,-10e-4 c -0.648189,-0.636071 -1.010667,-1.564996 -1.105045,-2.77536 h 8.534364 v -1.00095 c 0,-1.701041 -0.451687,-3.057828 -1.358865,-4.054353 -0.900214,-1.002925 -2.133199,-1.50648 -3.675713,-1.50648 z m 0.02022,1.759244 c 0.896708,0 1.601463,0.291419 2.137381,0.879624 v 10e-4 c 0.523986,0.568177 0.789537,1.331065 0.819971,2.283987 l -6.413157,0.01012 c 0.107226,-0.994659 0.440723,-1.771485 1.02117,-2.320383 0.608565,-0.568977 1.414028,-0.854349 2.434635,-0.854348 z"
           style="color:black;fill:#90c6ee;fill-opacity:1;stroke:none;stroke-width:0.181182"
           id="path1425" />
        <path
           d="m 66.661443,74.582821 c -0.801532,0 -1.515166,0.17255 -2.136372,0.517663 h -0.0016 c -0.544841,0.306089 -1.014975,0.772376 -1.431662,1.350777 v -1.595453 h -2.051442 v 11.505869 h 2.051442 v -6.491008 c 0,-1.089591 0.28399,-1.936876 0.84626,-2.557986 0.562202,-0.62104 1.323183,-0.930176 2.308249,-0.930176 0.816572,0 1.410003,0.253935 1.809799,0.763351 0.399683,0.509272 0.607649,1.29077 0.607649,2.350716 v 6.865103 h 2.041331 v -6.925765 c 0,-1.576659 -0.336372,-2.782095 -1.022182,-3.606455 -0.685666,-0.831137 -1.701882,-1.246636 -3.021556,-1.246636 z"
           style="color:black;fill:#90c6ee;fill-opacity:1;stroke:none;stroke-width:0.181182"
           id="path1433" />
        <path
           d="m 77.056158,74.582821 c -0.613348,0 -1.242681,0.06824 -1.888662,0.204233 -0.645689,0.129199 -1.31108,0.32605 -1.995835,0.59046 l -0.05763,0.02327 v 1.933145 l 0.133459,-0.07279 c 0.559685,-0.306495 1.142239,-0.536407 1.748125,-0.689545 0.606039,-0.153174 1.228596,-0.229511 1.86844,-0.229511 1.003801,0 1.769497,0.231126 2.308252,0.6855 v 10e-4 h 10e-4 c 0.545131,0.447784 0.815928,1.075857 0.815928,1.911916 v 0.091 h -2.518553 c -1.703391,0 -2.997473,0.325439 -3.876406,0.989829 -0.872086,0.664446 -1.309325,1.659242 -1.309325,2.953306 0,1.110773 0.349519,2.013096 1.04847,2.684368 h 0.001 c 0.706028,0.664495 1.655779,0.995896 2.831982,0.995893 0.927352,0 1.717536,-0.163833 2.366893,-0.495419 l 10e-4,-0.001 c 0.57449,-0.299469 1.050408,-0.766098 1.454918,-1.348756 v 1.551977 h 2.041332 v -6.551673 c 0,-1.739695 -0.408571,-3.053459 -1.23855,-3.924937 -0.829983,-0.871403 -2.082295,-1.302246 -3.735869,-1.302246 z m 1.172831,6.086584 h 1.760256 v 0.323539 c 0,1.19767 -0.30818,2.147352 -0.919054,2.863324 -0.604043,0.709092 -1.398381,1.059594 -2.408347,1.059591 -0.731706,0 -1.299047,-0.185657 -1.717792,-0.552038 -0.412573,-0.373893 -0.617759,-0.869684 -0.617759,-1.510525 0,-0.807953 0.272835,-1.35393 0.825026,-1.681393 0.550125,-0.326239 1.581466,-0.502498 3.07767,-0.502498 z"
           style="color:black;fill:#90c6ee;fill-opacity:1;stroke:none;stroke-width:0.181182"
           id="path1441" />
        <path
           d="m 89.101934,74.582821 c -1.784079,0 -3.204443,0.538563 -4.240387,1.615675 -1.029244,1.077275 -1.54187,2.556958 -1.54187,4.420356 0,1.836573 0.508933,3.308734 1.530748,4.399124 1.021812,1.090393 2.405883,1.636908 4.130182,1.636908 0.632346,0 1.229121,-0.06129 1.788567,-0.184011 0.566005,-0.122751 1.111827,-0.307562 1.636905,-0.553051 l 0.05258,-0.02425 v -1.930115 l -0.134471,0.07482 c -0.519744,0.286524 -1.042338,0.50183 -1.567145,0.648091 -0.518242,0.139526 -1.042917,0.209288 -1.574221,0.209288 -1.18747,0 -2.092531,-0.369847 -2.741996,-1.111156 -0.649673,-0.748108 -0.978707,-1.798431 -0.978707,-3.165631 0,-1.367197 0.329301,-2.414279 0.978707,-3.155521 0.649576,-0.747995 1.554697,-1.121266 2.741996,-1.121266 0.530928,0 1.055249,0.0723 1.573209,0.218389 h 0.001 v 10e-4 c 0.524809,0.139505 1.047255,0.351374 1.567144,0.637979 l 0.134471,0.07482 v -1.950337 l -0.05258,-0.02425 c -0.518318,-0.238697 -1.053947,-0.416846 -1.606575,-0.532828 l 10e-4,10e-4 c -0.552572,-0.122836 -1.119255,-0.185023 -1.698582,-0.185023 z"
           style="color:black;fill:#90c6ee;fill-opacity:1;stroke:none;stroke-width:0.181182"
           id="path1449" />
        <path
           d="m 94.580872,70.447583 v 0.091 2.446766 h 2.041332 v -2.537761 z m 0,4.408225 v 0.091 11.414874 h 2.041332 V 74.855808 Z"
           style="color:black;fill:#90c6ee;fill-opacity:1;stroke:none;stroke-width:0.181182"
           id="path1457" />
        <path
           d="m 99.785811,71.640633 v 3.215175 h -1.364929 v 1.627807 h 1.364929 v 6.056254 c 0,1.42713 0.272089,2.429703 0.846259,2.996782 0.57439,0.560205 1.5893,0.825026 3.03621,0.825026 h 2.00089 v -1.739025 h -2.00089 c -0.76404,0 -1.25659,-0.136313 -1.4812,-0.366003 l -0.002,-10e-4 c -0.21257,-0.22494 -0.34882,-0.801423 -0.34882,-1.715769 v -6.056254 h 3.83192 v -1.627807 h -3.83192 V 71.64061 h -0.09 z"
           style="color:black;fill:#90c6ee;fill-opacity:1;stroke:none;stroke-width:0.181182"
           id="path1465" />
        <path
           d="m 106.55587,74.855808 4.61752,11.233894 -0.32051,0.815925 c -0.34178,0.898008 -0.66083,1.464104 -0.91551,1.682405 -0.2626,0.225085 -0.63493,0.34174 -1.1329,0.34174 h -1.18344 v 1.739024 h 1.57776 c 0.85066,0 1.54107,-0.21102 2.05902,-0.63798 0.52423,-0.432135 1.03546,-1.321056 1.56361,-2.675265 l 5.02345,-12.499743 h -2.16619 l -3.47704,8.704219 -3.47805,-8.704219 z"
           style="color:black;fill:#90c6ee;fill-opacity:1;stroke:none;stroke-width:0.181182"
           id="path1473" />
      </g>
    </g>
    <rect
       y="280.24545"
       x="85.292305"
       height="25.925144"
       width="0.26726952"
       id="rect5793"
       style="fill:black;fill-opacity:0;fill-rule:nonzero;stroke:black;stroke-width:0.26458332;stroke-opacity:0" />
  </g>
</svg>
