<?xml version="1.0" encoding="UTF-8" standalone="no"?>
<svg
   xmlns:dc="http://purl.org/dc/elements/1.1/"
   xmlns:cc="http://creativecommons.org/ns#"
   xmlns:rdf="http://www.w3.org/1999/02/22-rdf-syntax-ns#"
   xmlns:svg="http://www.w3.org/2000/svg"
   xmlns="http://www.w3.org/2000/svg"
   xmlns:xlink="http://www.w3.org/1999/xlink"
   id="svg4584"
   version="1.1"
   viewBox="0 0 127 52.916667"
   height="52.916668mm"
   width="127mm">
  <defs
     id="defs4578">
    <linearGradient
       gradientUnits="userSpaceOnUse"
       y2="66.110077"
       x2="36.958832"
       y1="89.657997"
       x1="13.410914"
       id="linearGradient70771"
       xlink:href="#linearGradient135126" />
    <linearGradient
       id="linearGradient135126">
      <stop
         id="stop135122"
         offset="0"
         style="stop-color:#e93c17;stop-opacity:1" />
      <stop
         id="stop135124"
         offset="1"
         style="stop-color:#ca153e;stop-opacity:1" />
    </linearGradient>
    <linearGradient
       y2="89.657997"
       x2="13.410914"
       y1="66.110077"
       x1="36.958832"
       gradientTransform="translate(-4.9571544e-6)"
       gradientUnits="userSpaceOnUse"
       id="linearGradient89893"
       xlink:href="#linearGradient135126" />
  </defs>
  <metadata
     id="metadata4581">
    <rdf:RDF>
      <cc:Work
         rdf:about="">
        <dc:format>image/svg+xml</dc:format>
        <dc:type
           rdf:resource="http://purl.org/dc/dcmitype/StillImage" />
        <dc:title></dc:title>
      </cc:Work>
    </rdf:RDF>
  </metadata>
  <g
     id="layer2">
    <rect
       y="-0.0013509586"
       x="0.11015051"
       height="52.916668"
       width="127"
       id="rect3332-9"
       style="display:inline;fill:white;fill-opacity:1;stroke-width:0.56500113;stroke-linecap:square;stroke-linejoin:round;stroke-dashoffset:30.23620033;paint-order:stroke fill markers" />
  </g>
  <g
     transform="translate(-52.060291,-0.19846894)"
     id="layer1">
    <g
       transform="translate(48.860638,53.831761)"
       id="g911">
      <g
         style="fill:url(#linearGradient70771);fill-opacity:1"
         transform="matrix(1.0337078,0,0,1.0337078,-0.63380292,-107.9122)"
         id="g5951">
        <path
           d="m 16.354404,66.110083 c -1.617931,0 -2.943487,1.325543 -2.943487,2.943487 v 17.660939 c 0,0.677907 0.234349,1.303066 0.623769,1.80231 0.540007,0.692304 1.379688,1.141182 2.319718,1.141182 h 17.66094 c 1.617937,0 2.943491,-1.325549 2.943491,-2.943492 v -17.66094 c 0,-0.651264 -0.215491,-1.252715 -0.577776,-1.741948 v -0.0029 c -0.0029,-0.0039 -0.0055,-0.0078 -0.0089,-0.01168 -0.0095,-0.0128 -0.01891,-0.02503 -0.02893,-0.03726 -0.0067,-0.0083 -0.01335,-0.01725 -0.02003,-0.02559 -0.02002,-0.02559 -0.04227,-0.05006 -0.06325,-0.07476 -0.541343,-0.639745 -1.347338,-1.049194 -2.244986,-1.049194 z m 0,1.471743 h 17.66094 c 0.828062,0 1.471743,0.643682 1.471743,1.471744 v 7.358726 H 31.071852 V 73.468805 H 28.128366 V 69.05357 h -2.943493 v 5.886983 h -2.943491 v -2.943491 h -2.943487 v 4.415234 H 14.88266 V 69.05357 c 0,-0.828062 0.643682,-1.471744 1.471744,-1.471744 z M 14.88266,79.355787 h 4.415235 v 4.415235 h 2.943487 V 80.82753 h 2.943491 v 5.886979 h 2.943493 v -4.415237 h 2.943486 v -2.943486 h 2.207617 2.207618 v 7.358722 c 0,0.828063 -0.643681,1.471749 -1.471743,1.471749 h -17.66094 c -0.828062,0 -1.471744,-0.643688 -1.471744,-1.471749 z"
           style="fill:url(#linearGradient89893);fill-opacity:1;stroke-width:0.0636518;paint-order:markers fill stroke"
           id="rect1657-4-6-1-4-10-2-6" />
      </g>
      <g
         transform="translate(0,-52.802861)"
         id="g1900">
        <path
           d="m 42.62138,18.575626 v 3.286621 h -1.395262 v 1.663981 h 1.395262 v 6.190838 c 0,1.458844 0.278135,2.483697 0.865063,3.063378 0.587153,0.572653 1.624629,0.843359 3.103687,0.843359 h 2.046388 V 31.846134 H 46.59013 c -0.781021,0 -1.284518,-0.139343 -1.514118,-0.374137 l -0.0011,-0.0011 C 44.857659,31.241024 44.71942,30.651707 44.71942,29.717042 v -6.190814 h 3.917074 v -1.663981 h -3.917051 v -3.286621 h -0.09302 z"
           style="color:black;fill:black;fill-opacity:1;stroke:none;stroke-width:0.18520799"
           id="path1096-7" />
        <path
           d="m 55.362721,21.583194 c -1.75617,0 -3.168415,0.568934 -4.212662,1.704289 -1.037526,1.128659 -1.554427,2.657817 -1.554427,4.569231 0,1.850891 0.546733,3.333126 1.640211,4.426601 v 0.0011 c 1.100447,1.093438 2.59307,1.639175 4.457607,1.639175 0.743598,0 1.477513,-0.07653 2.200383,-0.229441 0.722432,-0.152823 1.427091,-0.375991 2.114601,-0.66766 l 0.05684,-0.02376 V 30.98938 l -0.136425,0.07235 c -0.669364,0.355172 -1.345152,0.620668 -2.02675,0.797883 -0.674275,0.177083 -1.372175,0.265618 -2.094963,0.265618 -1.243595,0 -2.200921,-0.333827 -2.89078,-0.996323 l -0.0016,-0.0011 C 52.252134,30.477598 51.8816,29.528029 51.785125,28.290769 h 8.724017 v -1.023194 c 0,-1.738843 -0.461725,-3.125781 -1.389063,-4.144449 -0.920218,-1.025213 -2.180603,-1.539958 -3.757395,-1.539958 z m 0.02066,1.798341 c 0.916635,0 1.637051,0.297893 2.184879,0.899169 v 0.0011 c 0.53563,0.580803 0.807082,1.360645 0.838192,2.334743 l -6.555672,0.01034 c 0.109609,-1.016762 0.450517,-1.81085 1.043864,-2.371949 0.622088,-0.58162 1.44545,-0.873331 2.488737,-0.873331 z"
           style="color:black;fill:black;fill-opacity:1;stroke:none;stroke-width:0.18520799"
           id="path1104-8" />
        <path
           d="m 67.848781,21.583194 c -0.819343,0 -1.548836,0.176384 -2.183847,0.529167 h -0.0016 c -0.556948,0.312893 -1.03753,0.789542 -1.463477,1.380794 V 21.862247 H 62.102841 V 33.623803 H 64.19987 V 26.98855 c 0,-1.113804 0.290301,-1.979915 0.865066,-2.614828 0.574696,-0.634841 1.352587,-0.950846 2.359543,-0.950846 0.834718,0 1.441337,0.259576 1.850017,0.780314 0.408565,0.520588 0.621152,1.319452 0.621152,2.402953 v 7.01766 h 2.086695 v -7.079671 c 0,-1.611695 -0.343848,-2.84392 -1.044898,-3.686597 -0.700903,-0.849608 -1.739702,-1.274341 -3.088701,-1.274341 z"
           style="color:black;fill:black;fill-opacity:1;stroke:none;stroke-width:0.18520799"
           id="path1112-5" />
        <path
           d="m 78.47449,21.583194 c -0.626978,0 -1.270296,0.06976 -1.930633,0.208773 -0.660037,0.132069 -1.340215,0.333295 -2.040186,0.603581 l -0.05891,0.02377 v 1.976107 l 0.136425,-0.07441 c 0.572122,-0.313305 1.167622,-0.548328 1.786972,-0.704867 0.619506,-0.156579 1.255898,-0.23461 1.909961,-0.23461 1.026107,0 1.808818,0.236261 2.359546,0.700732 v 10e-4 h 0.0011 c 0.557245,0.457735 0.83406,1.099765 0.83406,1.954402 v 0.09302 h -2.574521 c -1.741244,0 -3.064083,0.332671 -3.962548,1.011825 -0.891466,0.679212 -1.338421,1.696114 -1.338421,3.018936 0,1.135456 0.357286,2.057831 1.071769,2.74402 h 0.0011 c 0.721718,0.679262 1.692574,1.018027 2.894915,1.018024 0.94796,0 1.755704,-0.167473 2.41949,-0.506428 l 0.0011,-0.0011 c 0.587255,-0.306123 1.07375,-0.783121 1.487249,-1.378728 v 1.586466 h 2.086695 v -6.697266 c 0,-1.778355 -0.417651,-3.121314 -1.266074,-4.012157 -0.848426,-0.890768 -2.128568,-1.331185 -3.818887,-1.331185 z m 1.198893,6.221842 h 1.799373 v 0.330729 c 0,1.224285 -0.315029,2.195071 -0.939477,2.926953 -0.617466,0.72485 -1.429456,1.083141 -2.461866,1.083138 -0.747966,0 -1.327915,-0.189783 -1.755965,-0.564306 -0.421741,-0.382201 -0.631487,-0.88901 -0.631487,-1.544092 0,-0.825908 0.278898,-1.384017 0.84336,-1.718757 0.56235,-0.333489 1.616609,-0.513665 3.146062,-0.513665 z"
           style="color:black;fill:black;fill-opacity:1;stroke:none;stroke-width:0.18520799"
           id="path1120-7" />
        <path
           d="m 90.787949,21.583194 c -1.823725,0 -3.275652,0.550534 -4.334618,1.651579 -1.052116,1.101215 -1.576133,2.613779 -1.576133,4.518587 0,1.877386 0.520242,3.382262 1.564764,4.496882 1.044519,1.114624 2.459347,1.673284 4.221964,1.673284 0.646398,0 1.256435,-0.06265 1.828313,-0.188101 0.578583,-0.125478 1.136534,-0.314396 1.673283,-0.56534 l 0.05374,-0.02479 v -1.973007 l -0.137456,0.07648 c -0.531296,0.292891 -1.065503,0.512982 -1.601973,0.662493 -0.529759,0.142626 -1.066093,0.213939 -1.609203,0.213939 -1.213858,0 -2.139032,-0.378065 -2.80293,-1.135848 -0.664109,-0.764733 -1.000456,-1.838396 -1.000456,-3.235978 0,-1.397581 0.336619,-2.46793 1.000456,-3.225643 0.664012,-0.76462 1.589246,-1.146183 2.80293,-1.146183 0.542726,0 1.078698,0.0739 1.608169,0.223242 h 0.0011 v 0.0011 c 0.536472,0.142606 1.070528,0.359183 1.60197,0.652157 l 0.137461,0.07648 v -1.993729 l -0.05375,-0.0248 c -0.529836,-0.244003 -1.077367,-0.426109 -1.642276,-0.54467 l 0.0011,0.001 c -0.564851,-0.125566 -1.144127,-0.189135 -1.736328,-0.189135 z"
           style="color:black;fill:black;fill-opacity:1;stroke:none;stroke-width:0.18520799"
           id="path1128-4" />
        <path
           d="m 96.388641,17.356063 v 0.09302 2.50114 h 2.086695 v -2.594157 z m 0,4.506184 v 0.09302 11.668538 h 2.086695 V 21.862247 Z"
           style="color:black;fill:black;fill-opacity:1;stroke:none;stroke-width:0.18520799"
           id="path1136-1" />
        <path
           d="m 101.70925,18.575626 v 3.286621 h -1.39527 v 1.663981 h 1.39527 v 6.190838 c 0,1.458844 0.27813,2.483697 0.86506,3.063378 0.58715,0.572653 1.62462,0.843359 3.10369,0.843359 h 2.04535 V 31.846134 H 105.678 c -0.78103,0 -1.28452,-0.139343 -1.51412,-0.374137 l -0.002,-0.0011 c -0.21729,-0.229939 -0.35657,-0.819232 -0.35657,-1.753897 v -6.190772 h 3.91708 v -1.663981 h -3.91704 v -3.286621 h -0.092 z"
           style="color:black;fill:black;fill-opacity:1;stroke:none;stroke-width:0.18520799"
           id="path1144-8" />
        <path
           d="m 108.62975,21.862247 4.72013,11.483537 -0.32763,0.834057 c -0.34937,0.917964 -0.675,1.496639 -0.93534,1.719791 -0.26843,0.230087 -0.64956,0.349335 -1.15859,0.349335 h -1.20923 v 1.777669 h 1.61231 c 0.86957,0 1.57584,-0.215709 2.1053,-0.652158 0.53588,-0.441738 1.05795,-1.350412 1.59783,-2.734715 l 5.13561,-12.777516 h -2.21486 l -3.5543,8.897648 -3.55534,-8.897648 z"
           style="color:black;fill:black;fill-opacity:1;stroke:none;stroke-width:0.18520799"
           id="path1152-5" />
      </g>
    </g>
  </g>
</svg>
